<?xml version="1.0" encoding="UTF-8"?>
<!DOCTYPE svg PUBLIC "-//W3C//DTD SVG 1.1//EN" "http://www.w3.org/Graphics/SVG/1.1/DTD/svg11.dtd">
<!-- Creator: CorelDRAW 2018 (64-Bit) -->
<svg xmlns="http://www.w3.org/2000/svg" xml:space="preserve" width="50px" height="63px" version="1.1" style="shape-rendering:geometricPrecision; text-rendering:geometricPrecision; image-rendering:optimizeQuality; fill-rule:evenodd; clip-rule:evenodd"
viewBox="0 0 1.16 1.45"
 xmlns:xlink="http://www.w3.org/1999/xlink">
 <defs>
  <style type="text/css">
   <![CDATA[
    .fil0 {fill:#ec565d}
   ]]>
  </style>
 </defs>
 <g id="Layer_x0020_1">
  <metadata id="CorelCorpID_0Corel-Layer"/>
  <g id="_2488857529264">
   <g>
    <g>
     <path class="fil0" d="M0.58 0c-0.32,0 -0.58,0.26 -0.58,0.58 0,0.04 0,0.07 0.01,0.11 0,0 0,0.01 0,0.02 0.01,0.04 0.03,0.08 0.04,0.11 0.07,0.15 0.2,0.38 0.5,0.62 0.01,0 0.02,0.01 0.03,0.01 0.01,0 0.02,-0.01 0.03,-0.01 0.3,-0.24 0.43,-0.47 0.5,-0.62 0.01,-0.03 0.03,-0.07 0.04,-0.11 0,-0.01 0,-0.02 0,-0.02 0.01,-0.04 0.01,-0.07 0.01,-0.11 0,-0.32 -0.26,-0.58 -0.58,-0.58zm0.49 0.67c0,0 0,0.01 0,0.01 0,0 0,0 0,0.01 0,0 0,0 0,0 -0.01,0.03 -0.02,0.07 -0.04,0.1 0,0 0,0 0,0 -0.06,0.13 -0.18,0.34 -0.45,0.56 -0.27,-0.22 -0.4,-0.43 -0.45,-0.56 0,0 0,0 0,0 -0.02,-0.03 -0.03,-0.07 -0.04,-0.1 0,0 0,0 0,0 0,-0.01 0,-0.01 0,-0.01 0,0 0,-0.01 0,-0.01 -0.01,-0.03 -0.01,-0.06 -0.01,-0.09 0,-0.27 0.23,-0.5 0.5,-0.5 0.27,0 0.5,0.23 0.5,0.5 0,0.03 -0.01,0.06 -0.01,0.09z"/>
     <path class="fil0" d="M0.58 0.22c-0.2,0 -0.37,0.16 -0.37,0.37 0,0.2 0.17,0.36 0.37,0.36 0.2,0 0.37,-0.16 0.37,-0.36 0,-0.21 -0.17,-0.37 -0.37,-0.37zm0 0.65c-0.16,0 -0.29,-0.13 -0.29,-0.28 0,-0.16 0.13,-0.29 0.29,-0.29 0.16,0 0.29,0.13 0.29,0.29 0,0.15 -0.13,0.28 -0.29,0.28z"/>
    </g>
   </g>
   <g>
   </g>
   <g>
   </g>
   <g>
   </g>
   <g>
   </g>
   <g>
   </g>
   <g>
   </g>
   <g>
   </g>
   <g>
   </g>
   <g>
   </g>
   <g>
   </g>
   <g>
   </g>
   <g>
   </g>
   <g>
   </g>
   <g>
   </g>
   <g>
   </g>
  </g>
 </g>
</svg>
