<?xml version="1.0" encoding="UTF-8"?>
<!DOCTYPE svg PUBLIC "-//W3C//DTD SVG 1.1//EN" "http://www.w3.org/Graphics/SVG/1.1/DTD/svg11.dtd">
<!-- Creator: CorelDRAW 2018 (64-Bit) -->
<svg xmlns="http://www.w3.org/2000/svg" xml:space="preserve" width="56px" height="42px" version="1.1" style="shape-rendering:geometricPrecision; text-rendering:geometricPrecision; image-rendering:optimizeQuality; fill-rule:evenodd; clip-rule:evenodd"
viewBox="0 0 1.52 1.14"
 xmlns:xlink="http://www.w3.org/1999/xlink">
 <defs>
  <style type="text/css">
   <![CDATA[
    .fil0 {fill:#373435}
   ]]>
  </style>
 </defs>
 <g id="Layer_x0020_1">
  <metadata id="CorelCorpID_0Corel-Layer"/>
  <path class="fil0" d="M0.33 0.94c0,-0.14 0.04,-0.24 0.11,-0.32 0.03,-0.03 0.07,-0.06 0.1,-0.08 0.09,-0.05 0.05,-0.02 0.13,0 0.06,0.02 0.13,0.02 0.19,0 0.06,-0.03 0.04,-0.04 0.07,-0.02 0.05,0.02 0.1,0.05 0.13,0.09l0.05 0.06c0.09,0.13 0.08,0.26 0.08,0.42l-0.86 0 0 -0.15zm1.19 -0.22l0 0.17c0,0.03 -0.05,0.02 -0.07,0.02 -0.04,0 -0.14,0 -0.19,0 -0.01,0 -0.01,0 -0.02,0l0 0.2c0,0.02 -0.01,0.03 -0.03,0.03l-0.91 0c-0.02,0 -0.02,-0.02 -0.02,-0.04l0 -0.13c0,-0.02 0.01,-0.06 -0.01,-0.06 -0.03,0 -0.06,0 -0.09,0 -0.02,0 -0.05,0 -0.07,0 -0.01,0 -0.05,0 -0.07,0 -0.02,0 -0.04,0 -0.04,-0.02l0 -0.17c0,-0.11 0.06,-0.22 0.13,-0.28 0.03,-0.01 0.06,-0.04 0.09,-0.05 -0.01,0 -0.04,-0.05 -0.05,-0.07 -0.01,-0.02 -0.02,-0.06 -0.02,-0.09 0,-0.04 0.01,-0.07 0.02,-0.1 0.01,-0.02 0.03,-0.04 0.05,-0.06l0.03 -0.03c0.08,-0.05 0.16,-0.05 0.24,-0.01 0.02,0.01 0.03,0.03 0.01,0.04 -0.02,0.02 -0.04,0 -0.06,-0.01 -0.04,-0.01 -0.1,-0.01 -0.14,0.01 -0.09,0.05 -0.12,0.15 -0.08,0.24 0.01,0.02 0.02,0.03 0.04,0.04 0.07,0.08 0.14,0.05 0.18,0.05 0.02,0 0.04,0.03 0.01,0.04 -0.04,0.03 -0.12,0.02 -0.16,0 -0.02,-0.01 -0.03,-0.02 -0.07,0.01 -0.02,0.01 -0.03,0.02 -0.05,0.03 -0.05,0.03 -0.09,0.1 -0.11,0.17 -0.01,0.06 -0.01,0.14 -0.01,0.21l0.23 0c0,-0.11 0.09,-0.26 0.18,-0.32 0.01,-0.02 0.03,-0.03 0.04,-0.04 0.02,-0.01 0.04,-0.02 0.06,-0.03 -0.01,-0.01 -0.01,-0.01 -0.02,-0.02 -0.01,-0.01 -0.03,-0.03 -0.04,-0.06 -0.03,-0.06 -0.03,-0.16 0.01,-0.23 0,-0.02 0.01,-0.03 0.02,-0.04 0.02,-0.03 0.04,-0.05 0.07,-0.07 0.08,-0.06 0.18,-0.06 0.28,-0.02 0.02,0.01 0.06,0.03 0.08,0.05l0.01 0.02c0.01,0.01 0.01,0.01 0.02,0.02 0.07,0.11 0.06,0.24 -0.02,0.34 0,0 -0.01,0 -0.01,0.01 0.04,0.02 0.07,0.04 0.1,0.07 0.01,0 0.02,0.01 0.02,0.02 0.03,0.01 0.05,0.04 0.06,0.06 0.05,0.06 0.1,0.16 0.1,0.24l0.23 0c0,-0.12 0,-0.22 -0.06,-0.31 -0.03,-0.04 -0.07,-0.08 -0.11,-0.1 -0.01,-0.01 -0.04,-0.02 -0.05,-0.02 0,0 -0.06,0.03 -0.11,0.03 -0.12,0 -0.08,-0.06 -0.06,-0.06 0.02,0 0.03,0 0.05,0 0.07,0 0.14,-0.03 0.17,-0.1 0.02,-0.05 0.02,-0.12 -0.02,-0.17 -0.04,-0.07 -0.13,-0.1 -0.2,-0.07 -0.02,0.01 -0.07,0.04 -0.07,0 0,-0.03 0.03,-0.04 0.04,-0.04 0.03,-0.01 0.05,-0.02 0.07,-0.02 0.07,0 0.12,0.02 0.17,0.06 0.07,0.06 0.1,0.17 0.05,0.27l-0.03 0.05c-0.01,0 -0.01,0 -0.01,0.01 0.01,0 0.04,0.02 0.04,0.03 0.07,0.04 0.11,0.09 0.15,0.16 0.02,0.04 0.02,0.09 0.03,0.14zm-0.99 -0.42c0,-0.06 0.01,-0.11 0.05,-0.16 0.04,-0.05 0.1,-0.09 0.18,-0.09 0.07,0 0.13,0.04 0.18,0.09 0.07,0.09 0.06,0.22 -0.02,0.3 -0.02,0.01 -0.04,0.03 -0.06,0.04 -0.18,0.08 -0.33,-0.06 -0.33,-0.18z"/>
 </g>
</svg>
