<?xml version="1.0" encoding="utf-8"?>
<!-- Generator: Adobe Illustrator 16.0.0, SVG Export Plug-In . SVG Version: 6.00 Build 0)  -->
<!DOCTYPE svg PUBLIC "-//W3C//DTD SVG 1.1//EN" "http://www.w3.org/Graphics/SVG/1.1/DTD/svg11.dtd">
<svg version="1.1" id="Layer_1" xmlns="http://www.w3.org/2000/svg" xmlns:xlink="http://www.w3.org/1999/xlink" x="0px" y="0px"
	 width="116.97px" height="107.027px" viewBox="0 0 116.97 107.027" enable-background="new 0 0 116.97 107.027"
	 xml:space="preserve">
<g>
	<g>
		
			<line fill="none" stroke="#808285" stroke-width="0.5" stroke-miterlimit="10" x1="110.779" y1="46.392" x2="110.779" y2="84.948"/>
		
			<line fill="none" stroke="#808285" stroke-width="0.5" stroke-miterlimit="10" x1="103.284" y1="68.653" x2="103.284" y2="107.208"/>
		
			<line fill="none" stroke="#808285" stroke-width="0.5" stroke-miterlimit="10" x1="110.779" y1="93.316" x2="110.779" y2="96.772"/>
	</g>
	<g>
		<path fill-rule="evenodd" clip-rule="evenodd" fill="#FFFFFF" d="M36.252,52.969c0,2.414-0.013,4.826,0.005,7.24
			c0.017,2.512,0.783,4.8,2.264,6.812c2.67,3.632,6.281,5.303,10.802,5.249c6.781-0.08,12.309-5.553,12.31-12.339
			c0.001-4.229,0-8.458-0.001-12.687c0-1.477,0-1.449-1.502-1.491c-0.563-0.015-0.725,0.113-0.721,0.702
			c0.027,4.574,0.031,9.147,0.009,13.721c-0.013,2.474-0.757,4.725-2.447,6.559c-3.286,3.567-7.43,4-11.784,2.754
			c-4.125-1.18-6.706-4.938-6.722-9.246c-0.018-4.666-0.004-9.331-0.004-13.996c0-1.595-0.002-1.564-1.604-1.599
			c-0.563-0.012-0.618,0.196-0.614,0.668C36.263,47.867,36.252,50.419,36.252,52.969z M38.459,32.568
			c-0.001-1.146-0.001-1.146-1.131-1.145c-1.074,0.001-1.074,0.001-1.075,1.063c-0.001,1.143-0.001,1.143,1.132,1.144
			C38.46,33.631,38.46,33.631,38.459,32.568z M38.459,36.955c0.001-1.116-0.021-1.225-0.74-1.08c-0.494,0.1-1.486-0.711-1.471,0.64
			c0.018,1.528,0.002,1.528,0.682,1.53C38.458,38.047,38.458,38.047,38.459,36.955z M37.328,42.458
			c1.135,0.002,1.135,0.002,1.133-1.144c-0.003-1.065-0.003-1.065-1.076-1.063c-1.131,0.001-1.131,0.001-1.132,1.145
			C36.25,42.456,36.25,42.456,37.328,42.458z"/>
		<path fill-rule="evenodd" clip-rule="evenodd" fill="#A69EA1" d="M15.29,36.941c4.901,0.02,8.827,3.966,8.826,8.868
			c-0.002,5.698-0.103,11.399,0.028,17.095c0.121,5.261-4.03,9.596-9.411,9.357c-1.512-0.067-3.032,0.063-4.491-0.479
			c-3.05-1.132-4.968-3.274-5.781-6.421c-0.048-0.188,0.008-0.428-0.207-0.559c0-6.804,0-13.609,0-20.413
			c0.228-0.177,0.187-0.46,0.245-0.691c1.003-3.995,4.46-6.724,8.58-6.757C13.816,36.941,14.552,36.941,15.29,36.941z M16.39,45.797
			c0.015-1.05-1.09-2.204-2.143-2.234c-1.08-0.032-2.253,1.093-2.27,2.177c-0.016,1.05,1.089,2.202,2.144,2.235
			C15.2,48.008,16.375,46.88,16.39,45.797z"/>
		<path fill-rule="evenodd" clip-rule="evenodd" fill="#D4603B" d="M62.045,1.631c0.503,0.239,1.063,0.205,1.591,0.328
			c7.028,1.632,11.757,8.037,11.21,15.211c-0.302,3.955-1.563,7.632-3.338,11.14c-2.75,5.429-6.343,10.267-10.465,14.728
			c-0.42,0.454-0.621,0.446-1.032-0.004c-5.027-5.499-9.37-11.444-12.087-18.45c-1.061-2.736-1.714-5.567-1.739-8.521
			C46.123,8.964,51.406,2.806,58.439,1.776c0.152-0.023,0.33,0.025,0.434-0.145C59.93,1.631,60.988,1.631,62.045,1.631z
			 M70.458,15.977c-0.011-5.493-4.471-9.938-9.965-9.93c-5.47,0.007-9.905,4.489-9.896,9.998c0.011,5.455,4.509,9.876,10.032,9.862
			C66.009,25.893,70.469,21.387,70.458,15.977z"/>
		<path fill-rule="evenodd" clip-rule="evenodd" fill="#231F20" d="M13.079,36.941c0.001-7.651,0.001-15.302,0.003-22.952
			c0.001-6.029,4.316-11.156,10.274-12.212c0.125-0.022,0.286,0.034,0.346-0.145c1.379,0,2.758,0,4.138,0
			c0.438,0.258,0.945,0.265,1.419,0.39c5.393,1.426,9.195,6.329,9.202,11.908c0.005,4.874-0.009,9.747,0.012,14.62
			c0.002,0.529-0.116,0.696-0.67,0.683c-1.551-0.034-1.551-0.006-1.551-1.583c0-4.62,0.006-9.241-0.001-13.861
			c-0.007-4.859-3.075-8.792-7.839-9.706c-3.977-0.762-7.714-0.187-10.623,3.006c-1.697,1.863-2.487,4.111-2.494,6.612
			c-0.018,7.747-0.005,15.494-0.005,23.241C14.552,36.941,13.816,36.941,13.079,36.941z"/>
		<path fill-rule="evenodd" clip-rule="evenodd" fill="#231F20" d="M36.252,52.969c0-2.55,0.011-5.102-0.01-7.653
			c-0.004-0.473,0.052-0.68,0.614-0.668c1.602,0.034,1.604,0.003,1.604,1.599c0,4.666-0.014,9.331,0.004,13.996
			c0.016,4.309,2.597,8.066,6.722,9.246c4.354,1.246,8.498,0.813,11.784-2.754c1.69-1.833,2.435-4.084,2.447-6.559
			c0.022-4.573,0.019-9.146-0.009-13.721c-0.004-0.589,0.158-0.717,0.721-0.702c1.502,0.042,1.502,0.014,1.502,1.491
			c0.001,4.229,0.002,8.458,0.001,12.687c-0.001,6.786-5.528,12.26-12.31,12.339c-4.521,0.054-8.132-1.617-10.802-5.249
			c-1.48-2.012-2.247-4.3-2.264-6.812C36.24,57.795,36.252,55.383,36.252,52.969z"/>
		<path fill-rule="evenodd" clip-rule="evenodd" fill="#231F20" d="M38.459,32.568c0.001,1.063,0.001,1.063-1.074,1.062
			c-1.133,0-1.133,0-1.132-1.144c0.001-1.061,0.001-1.061,1.075-1.063C38.458,31.423,38.458,31.423,38.459,32.568z"/>
		<path fill-rule="evenodd" clip-rule="evenodd" fill="#231F20" d="M38.459,36.955c-0.002,1.093-0.002,1.093-1.529,1.09
			c-0.68-0.001-0.664-0.001-0.682-1.53c-0.016-1.352,0.977-0.54,1.471-0.64C38.439,35.73,38.46,35.838,38.459,36.955z"/>
		<path fill-rule="evenodd" clip-rule="evenodd" fill="#231F20" d="M37.328,42.458c-1.077-0.002-1.077-0.002-1.075-1.063
			c0.001-1.144,0.001-1.144,1.132-1.145c1.073-0.001,1.073-0.001,1.076,1.063C38.462,42.46,38.462,42.46,37.328,42.458z"/>
		<path fill-rule="evenodd" clip-rule="evenodd" fill="#231F20" d="M16.39,45.797c-0.015,1.083-1.19,2.211-2.269,2.177
			c-1.055-0.033-2.159-1.185-2.144-2.235c0.017-1.084,1.189-2.208,2.27-2.177C15.3,43.593,16.405,44.747,16.39,45.797z"/>
		<path fill-rule="evenodd" clip-rule="evenodd" fill="#FDFDFE" d="M70.458,15.977c0.011,5.411-4.449,9.916-9.828,9.93
			c-5.523,0.014-10.021-4.408-10.032-9.862c-0.01-5.509,4.426-9.99,9.896-9.998C65.988,6.039,70.448,10.483,70.458,15.977z
			 M66.789,13.448c-0.087-0.104-0.153-0.194-0.23-0.272c-0.29-0.295-0.61-0.565-0.869-0.885c-0.313-0.388-0.525-0.334-0.857,0.004
			c-1.654,1.69-3.345,3.345-5.001,5.034c-0.319,0.325-0.501,0.334-0.811,0c-0.657-0.707-1.356-1.372-2.038-2.055
			c-1.223-1.225-1.215-1.216-2.408,0.018c-0.261,0.269-0.305,0.423-0.015,0.708c1.523,1.497,3.031,3.009,4.532,4.529
			c0.24,0.244,0.382,0.292,0.652,0.021c2.246-2.268,4.509-4.52,6.766-6.778C66.604,13.676,66.686,13.568,66.789,13.448z"/>
		<path fill-rule="evenodd" clip-rule="evenodd" fill="#231F20" d="M66.789,13.448c-0.103,0.12-0.185,0.228-0.279,0.323
			c-2.257,2.259-4.52,4.51-6.766,6.778c-0.271,0.272-0.412,0.224-0.652-0.021c-1.501-1.52-3.009-3.033-4.532-4.529
			c-0.29-0.285-0.246-0.439,0.015-0.708c1.193-1.234,1.186-1.243,2.408-0.018c0.682,0.683,1.381,1.348,2.038,2.055
			c0.31,0.334,0.491,0.325,0.811,0c1.656-1.688,3.347-3.344,5.001-5.034c0.332-0.338,0.545-0.392,0.857-0.004
			c0.259,0.32,0.579,0.589,0.869,0.885C66.635,13.254,66.702,13.344,66.789,13.448z"/>
	</g>
</g>
</svg>
