<?xml version="1.0" encoding="utf-8"?>
<!-- Generator: Adobe Illustrator 16.0.0, SVG Export Plug-In . SVG Version: 6.00 Build 0)  -->
<!DOCTYPE svg PUBLIC "-//W3C//DTD SVG 1.1//EN" "http://www.w3.org/Graphics/SVG/1.1/DTD/svg11.dtd">
<svg version="1.1" id="Layer_1" xmlns="http://www.w3.org/2000/svg" xmlns:xlink="http://www.w3.org/1999/xlink" x="0px" y="0px"
	 width="116.97px" height="107.027px" viewBox="0 0 116.97 107.027" enable-background="new 0 0 116.97 107.027"
	 xml:space="preserve">
<g>
	<g>
		<line fill="none" stroke="#808285" stroke-width="0.5" stroke-miterlimit="10" x1="115.653" y1="54.81" x2="99.591" y2="89.859"/>
		
			<line fill="none" stroke="#808285" stroke-width="0.5" stroke-miterlimit="10" x1="99.564" y1="71.924" x2="83.502" y2="106.975"/>
		
			<line fill="none" stroke="#808285" stroke-width="0.5" stroke-miterlimit="10" x1="96.104" y1="97.468" x2="94.664" y2="100.608"/>
	</g>
	<g>
		<g>
			<path stroke="#FFFFFF" stroke-width="1.8" stroke-miterlimit="10" d="M15.37,76.864c0.477,0.689,1.42,0.867,2.113,0.393
				l8.559-5.854c1.457-1.013,2.162-2.774,1.904-4.461l1.836-1.227c0.988-0.663,2.178-0.911,3.35-0.7l19.936,3.587
				c3.535,0.637,7.121-0.121,10.1-2.13c0.123-0.084-0.963,0.811,16.523-13.8c2.588-2.142,2.951-5.99,0.807-8.582
				c-2.131-2.568-5.947-2.941-8.533-0.844l-10.484,7.5c-0.871-1.574-2.42-2.739-4.262-3.07l-16.721-3.008
				c-2.199-1.424-4.635-2.383-7.24-2.852c-7.217-1.299-14.123,0.9-18.633,6.545c-1.377-0.525-2.959-0.365-4.234,0.521l-8.42,5.871
				c-0.688,0.479-0.859,1.424-0.385,2.114L15.37,76.864z"/>
			<path fill="#FDD1A9" d="M32.349,44.659c2.297,0.412,4.436,1.275,6.355,2.562c0.174,0.116,0.373,0.196,0.578,0.233l17.029,3.064
				c1.625,0.293,2.76,1.865,2.459,3.537c-0.297,1.654-1.885,2.758-3.539,2.461l-12.232-2.201c-0.83-0.15-1.623,0.401-1.771,1.229
				c-0.148,0.828,0.402,1.621,1.23,1.77l12.234,2.201c3.307,0.596,6.482-1.611,7.076-4.919c0.049-0.263,0.076-0.528,0.09-0.792
				c10.141-7.26,11.572-8.278,11.633-8.331c1.297-1.068,3.223-0.888,4.293,0.403c1.07,1.296,0.891,3.221-0.41,4.297L61.032,63.831
				c-2.303,1.531-5.068,2.105-7.793,1.615l-19.936-3.588c-1.953-0.352-3.938,0.063-5.582,1.166l-1.498,1.001l-9.631-13.86
				C20.263,45.509,25.942,43.506,32.349,44.659L32.349,44.659z"/>
			<path fill="#FFFFFF" d="M11.763,51.228c0.584-0.405,1.359-0.358,1.895,0.123c0.205,0.181,10.717,15.345,10.775,15.465
				c0.334,0.671,0.119,1.5-0.486,1.921l-7.295,4.99L4.589,56.229L11.763,51.228z"/>
			<path d="M37.167,56.062c0.691-0.48,0.863-1.431,0.383-2.123c-0.48-0.689-1.43-0.86-2.121-0.381
				c-0.691,0.48-0.861,1.431-0.381,2.123C35.528,56.37,36.476,56.54,37.167,56.062L37.167,56.062z M37.167,56.062"/>
		</g>
		<g>
			<path stroke="#FFFFFF" stroke-width="2" stroke-miterlimit="10" d="M29.497,33.746l36.008,6.479
				c2.486,0.447,4.863-1.206,5.311-3.692l4.104-22.806c0.447-2.486-1.205-4.863-3.691-5.311L35.22,1.938
				c-2.486-0.447-4.863,1.205-5.311,3.691l-4.104,22.805C25.358,30.921,27.011,33.299,29.497,33.746L29.497,33.746z M34.681,4.938"
				/>
			<g>
				
					<rect x="31.518" y="14.156" transform="matrix(0.9842 0.1771 -0.1771 0.9842 3.5882 -8.843)" fill="#444E64" width="39.632" height="3.048"/>
				<path fill="#6FCFEE" d="M66.046,37.224l-36.01-6.479c-0.828-0.149-1.379-0.942-1.229-1.77l2.213-12.304l39.008,7.019
					l-2.215,12.303C67.665,36.821,66.874,37.373,66.046,37.224L66.046,37.224z"/>
				<path fill="#6FCFEE" d="M34.681,4.938l36.008,6.48c0.828,0.148,1.379,0.94,1.229,1.77l-0.27,1.5L32.64,7.67l0.271-1.501
					C33.06,5.341,33.853,4.79,34.681,4.938L34.681,4.938z"/>
				<path d="M49.798,28.118c-0.826-0.148-1.619,0.402-1.77,1.23c-0.148,0.828,0.404,1.621,1.23,1.77
					c0.828,0.149,1.621-0.402,1.771-1.229C51.179,29.06,50.626,28.267,49.798,28.118L49.798,28.118z M49.798,28.118"/>
				<path d="M61.802,30.278l-6.002-1.08c-0.828-0.149-1.621,0.402-1.77,1.23s0.402,1.621,1.23,1.77l6,1.08
					c0.83,0.149,1.623-0.401,1.773-1.23C63.183,31.22,62.632,30.427,61.802,30.278L61.802,30.278z M61.802,30.278"/>
			</g>
		</g>
	</g>
</g>
</svg>
